<svg width="88" height="54" viewBox="0 0 88 54" fill="none" xmlns="http://www.w3.org/2000/svg">
<path d="M81.3244 2.42837C80.6145 1.97514 78.8341 1.39018 77.3965 1.13763C76.3074 0.946358 73.7493 0.80164 73.1834 0.899316C73.0143 0.928534 72.4885 1.01296 72.0151 1.087C69.9846 1.40467 67.7943 2.53125 66.6277 3.85789C65.4677 5.17723 64.8198 6.86648 64.8223 8.56501C64.825 10.4506 65.5435 12.1863 66.8882 13.5556C67.8975 14.5836 69.2494 15.3158 71.4616 16.0329C72.3071 16.307 73.7041 16.7578 74.5659 17.0348C76.583 17.683 77.4564 18.1333 78.0798 18.8464C79.399 20.3549 78.8457 22.6043 76.9085 23.6083C74.6845 24.7609 70.2444 24.5214 66.7362 23.0595C64.7856 22.2465 64.4136 22.4847 64.4814 24.5034C64.5279 25.8896 64.6719 26.1802 65.577 26.7156C67.4645 27.8319 71.0545 28.5362 74.155 28.3983C77.4362 28.2523 79.8295 27.3181 81.5555 25.5093C83.0665 23.9259 83.6548 22.4872 83.6742 20.3285C83.689 18.6873 83.415 17.6975 82.5909 16.4152C81.5196 14.748 80.2905 14.046 75.913 12.6013C71.4629 11.1324 70.5262 10.633 69.9736 9.43409C69.4423 8.28151 69.8528 6.64488 70.8568 5.91272C72.6206 4.62644 77.3023 4.66098 80.191 5.98155C80.5617 6.15116 81.0936 6.32138 81.373 6.35988C82.1248 6.46363 82.2838 6.17307 82.2838 4.69601C82.2838 3.30388 82.1313 2.9435 81.3244 2.42837Z" fill="white"/>
<path d="M32.5596 2.47963C32.4606 2.28699 32.2596 2.02008 32.113 1.8865C31.8773 1.67158 31.6242 1.6384 29.9176 1.59891C28.2808 1.5609 27.9468 1.58467 27.712 1.75613C27.3118 2.04843 27.3531 2.72115 27.8758 4.42019C28.1167 5.20322 28.3596 6.01102 28.4154 6.21529C28.5364 6.65688 29.4111 9.56581 30.6304 13.5814C31.1162 15.1815 31.559 16.6578 31.6142 16.8621C31.6696 17.0664 31.9971 18.1667 32.3421 19.3071C32.6871 20.4476 33.2506 22.314 33.5944 23.4544C33.9382 24.5949 34.3029 25.8023 34.4049 26.1374C34.8291 27.5325 35.147 27.6946 37.4581 27.6946C39.2804 27.6946 39.8159 27.5651 40.1562 27.0424C40.3425 26.7561 40.6391 25.6119 41.8161 20.638C42.0979 19.4464 42.4678 17.8865 42.6379 17.1716C44.1895 10.6508 44.4991 9.33344 44.5871 8.87699C44.7185 8.19596 44.7841 8.01039 44.8941 8.01039C44.9503 8.01039 45.1732 8.77646 45.3896 9.71264C45.6058 10.6489 45.995 12.2784 46.2543 13.3338C46.7139 15.2042 46.8723 15.8641 47.7842 19.7095C48.0265 20.7308 48.2781 21.7615 48.3435 21.9998C48.4088 22.2381 48.6826 23.3658 48.9518 24.5059C49.221 25.646 49.5295 26.7506 49.6375 26.9607C49.9494 27.5678 50.4319 27.6947 52.4268 27.6941C53.9518 27.6937 54.235 27.6618 54.5768 27.4519C55.1407 27.1059 55.1944 26.9727 56.5265 22.6188C56.6827 22.1081 57.1419 20.6318 57.5469 19.3381C57.9518 18.0444 58.4873 16.3174 58.7366 15.5003C58.986 14.6832 59.355 13.4854 59.5567 12.8386C59.7585 12.1917 59.9747 11.4954 60.0373 11.2911C60.1543 10.9093 60.8313 8.72819 61.4782 6.64859C62.7913 2.42849 62.814 2.32339 62.5001 1.93354C62.2645 1.641 62.2191 1.63469 60.3677 1.63469C59.1642 1.63469 58.526 1.60478 58.1063 1.89187C57.5826 2.25013 57.3991 3.10207 56.882 5.12189C56.5713 6.33599 56.1792 7.85874 56.011 8.50559C55.3577 11.017 53.7185 17.4204 52.9053 20.638C52.7246 21.3529 52.5263 21.9379 52.4645 21.9379C52.4029 21.9379 52.2252 21.3808 52.0698 20.6999C51.9143 20.019 51.5945 18.6541 51.3591 17.6668C50.8252 15.4287 49.7173 10.6779 49.0059 7.57709C47.7991 2.31695 47.7552 2.17359 47.2463 1.83784C46.9941 1.67146 46.5919 1.63469 45.0266 1.63469C42.5916 1.63469 42.3514 1.76059 42.0048 3.21784C41.9205 3.57277 41.5668 5.08871 41.2189 6.58669C40.8708 8.08467 40.453 9.86739 40.2901 10.5483C40.1274 11.2292 39.8585 12.3712 39.6927 13.0862C39.5269 13.8011 39.1366 15.4724 38.8253 16.8002C38.5141 18.128 38.1331 19.7714 37.9785 20.4523C37.824 21.1332 37.6452 21.6795 37.5812 21.6663C37.5171 21.6532 36.9291 19.5083 36.2745 16.9C35.6199 14.2918 34.5567 10.0589 33.912 7.4939C33.2671 4.92876 32.6586 2.67238 32.5596 2.47963Z" fill="white"/>
<path d="M87.0245 35.2582C86.8078 34.8364 85.9434 34.4366 84.7012 34.184C84.2172 34.0855 82.8803 33.9828 81.7304 33.9557C79.5632 33.9047 79.389 33.9133 77.8566 34.1477C77.0372 34.273 76.6031 34.3716 75.2125 34.749C74.5724 34.9227 73.8728 35.2051 73.0539 35.6202C71.3801 36.4687 70.7366 37.1048 71.1027 37.5487C71.1294 37.5811 71.1469 37.609 71.1695 37.6319C71.3037 37.7681 71.6168 37.7294 75.0896 37.418C79.8213 36.9936 82.319 37.2749 82.9891 38.3076C83.3414 38.8503 83.2578 40.567 82.7943 42.3097C82.4141 43.7393 81.6321 46.06 80.8779 47.9978C80.3704 49.3016 80.3192 49.5198 80.4613 49.7753C80.9486 50.6518 83.2471 48.4142 84.8398 45.5128C85.4688 44.3668 86.2852 42.2732 86.6627 40.8375C87.2002 38.7935 87.3841 35.9583 87.0245 35.2582Z" fill="white"/>
<path d="M3.08554 36.6684C2.37534 36.2739 1.65591 35.8766 1.48681 35.7853C0.478266 35.241 -0.205495 36.1601 0.579848 37.0044C1.10743 37.5717 3.56995 39.623 5.17617 40.8333C7.40049 42.5093 9.70264 44.0113 12.3704 45.5275C12.966 45.866 16.4326 47.6079 17.2896 47.9992C19.2892 48.9126 23.2122 50.3373 25.7751 51.0811C32.0691 52.9075 39.8298 53.8055 46.3237 53.4589C49.9761 53.2639 52.9631 52.928 55.2285 52.4576C55.5328 52.3945 56.1139 52.2762 56.5197 52.195C61.3336 51.2311 66.5241 49.5327 70.7071 47.5525C71.3403 47.2527 71.8799 47.0074 71.906 47.0074C72.0066 47.0074 75.2861 45.1447 76.2687 44.5294C77.9582 43.4717 79.2203 42.5169 79.4051 42.1573C79.6758 41.6303 79.6176 41.2095 79.2188 40.8079C78.7315 40.3174 78.0658 40.3218 76.859 40.8241C71.2627 43.1528 63.5686 45.3637 58.3805 46.1341C57.9659 46.1958 57.0455 46.3369 56.3353 46.448C52.4784 47.0508 49.1036 47.2673 43.9759 47.2409C41.6086 47.2287 39.1736 47.1728 38.5649 47.1167C34.2023 46.715 33.6724 46.6505 30.5098 46.1361C26.0706 45.4141 21.9715 44.4058 17.351 42.8991C15.3155 42.2354 11.9956 40.9842 10.5257 40.3265C10.2552 40.2056 9.56343 39.897 8.98851 39.6408C7.57844 39.0126 4.66606 37.5461 3.08554 36.6684Z" fill="white"/>
<path fill-rule="evenodd" clip-rule="evenodd" d="M16.6132 0.957998C21.2553 1.44973 23.6605 3.48822 24.5688 7.70089C24.7166 8.38625 24.7729 9.99168 24.838 15.3765C24.9024 20.7008 24.9568 22.2665 25.0871 22.5569C25.1789 22.7612 25.4459 23.3461 25.6805 23.8568C26.1794 24.943 26.2862 25.4544 26.0907 25.8222C26.0128 25.9687 25.4123 26.4499 24.7562 26.8915C23.4616 27.7631 22.872 27.9069 22.2864 27.494C21.9061 27.2259 21.052 26.0357 20.6715 25.2435C20.5024 24.8914 20.2986 24.6026 20.2187 24.6016C20.1387 24.6005 19.7513 24.9105 19.3578 25.2905C17.8544 26.7422 16.0078 27.707 13.9158 28.1337C12.4843 28.4256 10.0027 28.3322 8.86553 27.9433C7.48657 27.4719 6.75264 27.0399 5.91872 26.209C4.41604 24.7116 3.77791 23.01 3.78332 20.5142C3.78627 19.1621 3.82882 18.8417 4.12053 17.9763C4.67061 16.3445 5.34982 15.3665 6.67848 14.293C7.87752 13.3243 9.17272 12.7646 11.0537 12.4022C12.7691 12.0718 15.8036 12.2088 18.3349 12.731C18.7069 12.8078 19.205 12.8773 19.4417 12.8855L19.8721 12.9005L19.8474 11.2128C19.7889 7.21077 18.8343 5.78805 15.8155 5.20347C14.6329 4.97444 12.6037 5.03535 11.1602 5.34337C10.0751 5.57487 8.19345 6.16849 7.45128 6.51352C7.18073 6.63931 6.73173 6.78044 6.45343 6.82723C5.84702 6.92912 5.5959 6.73735 5.47317 6.07886C5.3342 5.33358 5.47981 3.73421 5.72023 3.36492C6.18595 2.64935 9.55113 1.40529 11.8785 1.08836C13.903 0.812658 14.9646 0.78344 16.6132 0.957998ZM9.9802 17.3722C10.655 16.629 11.3914 16.2515 12.6648 15.996C13.7634 15.7756 15.2904 15.7733 16.9868 15.9893C18.9046 16.2336 19.7167 16.4029 19.8416 16.585C19.979 16.7851 19.8412 19.0475 19.6382 19.927C19.216 21.7549 17.4994 23.3848 15.3557 23.9929C13.8974 24.4066 11.9043 24.4075 10.9897 23.995C9.63119 23.3822 8.93784 22.1189 8.9435 20.2666C8.94731 18.9973 9.23569 18.1923 9.9802 17.3722Z" fill="white"/>
</svg>
