<svg width="85" height="56" viewBox="0 0 85 56" fill="none" xmlns="http://www.w3.org/2000/svg">
<path d="M69.381 19.1335C69.2471 19.0585 69.1038 18.9993 68.9448 18.9715C68.3273 18.8604 67.7246 18.803 67.135 18.7734C64.158 7.95293 54.0729 0.21106 42.7266 0.21106C28.7615 0.21106 17.4004 11.5156 17.4004 25.4119C17.4004 26.1682 17.4394 26.929 17.5157 27.7056C16.6433 27.4862 15.7049 27.3715 14.7107 27.4289C14.7042 27.4289 14.6968 27.4279 14.6903 27.4279C14.6726 27.4279 14.6559 27.4307 14.6382 27.4307C14.6215 27.4316 14.6057 27.4307 14.588 27.4316C14.5843 27.4316 14.5796 27.4335 14.5759 27.4335C6.93393 27.4937 0.735352 33.6944 0.735352 41.3141C0.735352 48.9717 6.99531 55.203 14.6894 55.203H30.3546C30.4504 55.203 30.5425 55.1928 30.6327 55.1752C30.7034 55.1863 30.774 55.1965 30.8475 55.1965C42.2616 55.1965 44.6583 47.3657 44.6583 40.7966V39.4425L48.7432 42.7955C48.7432 42.7955 50.141 40.9378 50.4154 40.5731L44.1738 35.6113C44.1617 35.6021 44.1486 35.5974 44.1366 35.5891C44.0938 35.5595 44.0501 35.5345 44.0045 35.5104C43.9673 35.4901 43.9301 35.4688 43.892 35.453C43.851 35.4345 43.8092 35.4225 43.7664 35.4086C43.7218 35.3938 43.6771 35.379 43.6315 35.3697C43.5906 35.3605 43.5488 35.3559 43.5069 35.3503C43.4604 35.3447 43.4139 35.3383 43.3674 35.3373C43.3237 35.3364 43.2791 35.3401 43.2354 35.3438C43.1907 35.3475 43.1461 35.3494 43.1024 35.3577C43.0577 35.3651 43.0131 35.3771 42.9694 35.3892C42.9266 35.4012 42.8838 35.4114 42.842 35.4281C42.801 35.4438 42.761 35.4632 42.7211 35.4836C42.6783 35.5049 42.6355 35.5262 42.5946 35.5521C42.5806 35.5604 42.5657 35.566 42.5518 35.5743L36.0376 40.4999C36.3073 40.8952 37.6075 42.7955 37.6075 42.7955L41.8673 39.3952V40.7966C41.8673 48.7255 38.3658 52.4196 30.8466 52.4196C30.7508 52.4196 30.6587 52.4298 30.5685 52.4474C30.4978 52.4363 30.4271 52.4261 30.3537 52.4261H14.6894C8.53356 52.4261 3.52541 47.4407 3.52541 41.3141C3.52541 35.1874 8.53356 30.2039 14.6894 30.2039C15.5831 30.2039 16.4908 30.3335 17.3985 30.5695C19.704 31.3479 21.3297 33.0511 21.3669 33.0918C21.7017 33.0918 23.16 31.4627 23.4278 31.2193C23.345 31.1286 22.2532 29.9641 20.5057 28.9441C20.3057 27.7204 20.1904 26.5532 20.1904 25.411C20.1904 13.0466 30.3007 2.98699 42.7266 2.98699C52.6081 2.98699 61.4051 9.59035 64.2594 18.8993C60.6602 19.3963 58.124 20.9708 57.978 21.0634C58.244 21.479 59.4772 23.4052 59.4772 23.4052C59.5098 23.3848 62.098 21.7937 65.5623 21.5577L66.0404 21.5614C74.5231 21.6336 81.4247 28.5535 81.4247 36.9868C81.4247 45.4988 74.4682 52.4243 65.9157 52.4243H54.1817V55.2011H65.9148C76.0055 55.2011 84.2139 47.0307 84.2139 36.9868C84.2139 28.1657 77.807 20.7616 69.381 19.1335Z" fill="white"/>
</svg>
